<?xml version="1.0" encoding="utf-8"?>
<!-- Generator: Adobe Illustrator 16.0.0, SVG Export Plug-In . SVG Version: 6.00 Build 0)  -->
<!DOCTYPE svg PUBLIC "-//W3C//DTD SVG 1.1//EN" "http://www.w3.org/Graphics/SVG/1.1/DTD/svg11.dtd">
<svg version="1.1" id="Capa_1" xmlns="http://www.w3.org/2000/svg" xmlns:xlink="http://www.w3.org/1999/xlink" x="0px" y="0px"
	 width="155.9px" height="68.2px" viewBox="0 0 155.9 68.2" style="enable-background:new 0 0 155.9 68.2;" xml:space="preserve">
<style type="text/css">
<![CDATA[
	.st0{fill:#E2231A;}
	.st1{fill:#288DC1;}
	.st2{fill:#FA8D29;}
	.st3{fill:#3B5CAD;}
]]>
</style>
<path class="st1" d="M86.3,38h-2.6v8.1h-4.8V24.5H86c5.4,0,8,2.8,8,6.4C94,35,90.6,38,86.3,38 M85.7,28.5h-2v5.4h2
	c2.7,0,3.5-1.1,3.5-2.9C89.2,29.5,88.4,28.5,85.7,28.5"/>
<path class="st1" d="M107.2,46.4c-6.5,0-11.1-4.5-11.1-11.1c0-6.3,4.8-11,11-11c3,0,6.2,0.7,8.2,3.4l-3,3c-0.8-1.3-2.8-2.2-5.1-2.2
	c-3.3,0-6.3,2.6-6.3,6.8c0,3.9,2.5,7,6.5,7c1.2,0,3.9-0.2,5.5-3.1l3.3,2.5C113.7,45.5,110.1,46.4,107.2,46.4"/>
<path class="st1" d="M129.9,46.4c-6.5,0-11.1-4.5-11.1-11.1c0-6.3,4.8-11,11-11c3,0,6.2,0.7,8.2,3.4l-3,3c-0.8-1.3-2.8-2.2-5.2-2.2
	c-3.3,0-6.3,2.6-6.3,6.8c0,3.9,2.5,7,6.5,7c1.2,0,3.9-0.2,5.4-3.1l3.3,2.5C136.4,45.5,132.8,46.4,129.9,46.4"/>
<path class="st1" d="M148.3,46.3c-2.1,0-4.8-0.4-7.6-2.5l2.7-3.6c1.3,1,3.1,2.2,5.1,2.2c1.5,0,2.5-0.6,2.5-2.2c0-1-0.9-1.8-1.6-2.1
	l-3.8-2c-2.7-1.4-4.4-3.2-4.4-5.9c0-3.6,3.1-6,7.3-6c2.2,0,4.6,0.5,6.7,2l-2.5,3.5c-1.3-1.1-2.9-1.6-4.2-1.6c-1.4,0-2.5,0.7-2.5,1.9
	c0,1.3,0.7,1.8,1.9,2.4l3,1.5c2.5,1.3,4.9,3,4.9,6.1C155.9,43.5,153.4,46.3,148.3,46.3"/>
<path class="st2" d="M62,9.5c0,0-0.7,6-4.9,10.4c-3.2,3.4-6.6,4.3-8.1,4.5c0.1-0.8,0.3-1.5,0.3-1.9c2.6-0.4,4.6-2.6,4.6-5.3
	c0-3-2.4-5.4-5.4-5.4s-5.4,2.4-5.4,5.4c0,2.5,1.7,4.6,4,5.2c-1.9,7-1.5,13.8-1.3,16.9c0.2,3.2,1.4,6.2,1.4,6.2s1.4,3.3,1.3,8.5
	c-0.1,7.8-2.9,14-2.9,14h9.8c0,0,1.9-7.5,0.8-15.3c-1-7-5.3-9.9-6.9-17c-0.7-3.1-0.7-6.1-0.6-8.5c1.5-0.4,6.3-1.7,10.6-5.5
	c5.1-4.6,7.6-10.9,7.6-10.9L62,9.5z"/>
<path class="st1" d="M46.5,54.4c-1.8-9.1-5.6-13.1-6.8-20.1c-1-6.1-0.7-10.1-0.4-11.7c3,0,5.3-2.5,5.3-5.4c0-3-2.4-5.4-5.4-5.4
	c-3,0-5.4,2.4-5.4,5.4c0,2.2,1.3,4.1,3.2,4.9c-1.3,5.4-0.9,13.5,0.3,17.8c0.9,3.1,3,7.9,2.7,14.5c-0.3,6.6-1.9,13.6-1.9,13.6h9.6
	C47.7,68.1,48.2,62.9,46.5,54.4"/>
<path class="st0" d="M44.6,17.2c0-1-0.3-2-0.8-2.8c-0.5,0.8-0.8,1.8-0.8,2.8c0,1,0.3,2,0.8,2.8C44.3,19.2,44.6,18.2,44.6,17.2"/>
<path class="st0" d="M47.6,61.7c-0.9,3.9-2,6.4-2,6.4h2.1C47.7,67.9,47.9,65.6,47.6,61.7"/>
<path class="st2" d="M40,51.6c0,0-1.2-2.5-3.9-0.4c-2.7,2-6.8,8.5-9.4,7.3c-2.6-1.2-2.5-6.6-2.6-8.9c-0.1-1.6,0-5.8,0.1-7.4
	c2.1-0.7,3.6-2.7,3.6-5.1c0-3-2.4-5.4-5.4-5.4c-3,0-5.4,2.4-5.4,5.4c0,2.7,1.9,4.9,4.5,5.3c-0.5,1.9-2.1,8.3-1.9,14.5
	c0.3,7.4,3.2,11.3,6.8,10.1c3.6-1.3,5.8-5.8,7.2-8.2c1.4-2.4,2.6-3.6,3-2.6c0.4,1-0.4,5.2-1,7.6c-0.6,2.4-1.2,4.3-1.2,4.3h8.6
	C42.8,68.1,42.9,57.4,40,51.6"/>
<path class="st3" d="M40,51.6C40,51.6,40,51.6,40,51.6c0,0.9,0,1.9,0,2.9c-0.3,6.6-1.9,13.6-1.9,13.6h4.7
	C42.8,68.1,42.9,57.4,40,51.6"/>
<path class="st1" d="M22.7,54.5c-1-4.4-3.9-2.7-5.9-1.8s-6.3,3.6-6.4,0.3c-0.1-2.8,1.5-6.9,2.2-8.4c0.6,0.2,1.3,0.4,2,0.4
	c3,0,5.4-2.4,5.4-5.4c0-3-2.4-5.4-5.4-5.4s-5.4,2.4-5.4,5.4c0,1.5,0.6,2.9,1.6,3.8c-1,0.9-3.9,3.9-7.8,10.6
	c-5,8.4-2.5,12.6-0.5,13.2c1.9,0.5,5.6-0.7,9.6-5.9c4-5.1,5.3-5.5,5.7-3.9c0.4,1.7-1,6.3-1.4,7.8c-0.4,1.6-1.1,2.9-1.1,2.9h8
	C23.2,68.1,23.7,58.8,22.7,54.5"/>
<path class="st0" d="M22.7,54.5c-0.6-2.5-1.7-3-3-2.8c-0.2,1.7-0.3,3.5-0.2,5.3c0.2,5.2,1.7,8.7,3.8,9.8
	C23.4,64,23.5,57.8,22.7,54.5"/>
<path class="st0" d="M19.5,41.7c0.3-0.7,0.4-1.4,0.4-2.2c0-2-1-3.7-2.6-4.6c-0.3,0.7-0.4,1.4-0.4,2.2C16.9,39,18,40.7,19.5,41.7"/>
<polygon class="st2" points="69.4,0 70.1,2.1 72.4,2.1 70.6,3.5 71.3,5.6 69.4,4.3 67.6,5.6 68.3,3.5 66.5,2.1 68.7,2.1 "/>
<path class="st2" d="M79.7,54.5c0-0.6,0.6-1.2,1.3-1.2c0.3,0,0.6,0.1,0.8,0.3l0.1,0.1l0.4-0.7l-0.1,0c-0.3-0.2-0.6-0.3-1.1-0.3
	c-0.4,0-0.9,0.1-1.3,0.7v-0.6H79v4.8h0.7V54.5z"/>
<path class="st2" d="M86.8,56.8L86.8,56.8l-0.4-0.6l-0.1,0.1c-0.2,0.2-0.7,0.8-1.6,0.8c-0.7,0-1.6-0.5-1.7-1.8h3.9v-0.1
	c0-2.1-1.2-2.5-2.2-2.5c-1.7,0-2.4,1.3-2.4,2.5c0,1.7,1.3,2.5,2.4,2.5C85.7,57.6,86.2,57.3,86.8,56.8 M83.1,54.5
	c0.2-1,1-1.3,1.7-1.3c0.8,0,1.4,0.6,1.4,1.3H83.1z"/>
<path class="st2" d="M92,56.8L92,56.8l-0.3-0.6l-0.1,0.1c-0.4,0.4-0.9,0.7-1.5,0.7c-0.8,0-1.6-0.7-1.6-1.9c0-1.1,0.6-1.9,1.5-1.9
	c0.3,0,0.9,0.1,1.4,0.6l0,0.1l0.5-0.5l0,0c-0.4-0.5-1-0.8-1.8-0.8c-1.4,0-2.4,1-2.4,2.5c0,1.5,1,2.6,2.4,2.6
	C90.7,57.6,91.4,57.5,92,56.8"/>
<path class="st2" d="M95.1,52.6c-1.2,0-2.5,0.8-2.5,2.5c0,1.7,1.3,2.5,2.5,2.5c1.2,0,2.5-0.9,2.5-2.5C97.5,53.4,96.2,52.6,95.1,52.6
	 M95.1,57c-1.1,0-1.8-0.8-1.8-1.9c0-1.4,1-1.9,1.8-1.9c0.8,0,1.8,0.5,1.8,1.9C96.8,56.2,96.1,57,95.1,57"/>
<path class="st2" d="M100.9,52.6c-0.2,0-0.9,0.1-1.4,0.7v-0.5h-0.7v4.8h0.7v-2.8c0-0.8,0.6-1.4,1.4-1.4c0.8,0,1.1,0.4,1.1,1.3v2.9
	h0.7v-3.3C102.7,53,101.7,52.6,100.9,52.6"/>
<path class="st2" d="M104.4,57.5h0.7v-4.2h0.9v-0.6h-0.9v-0.5c0-0.8,0.2-0.8,0.8-0.8h0.1v-0.6H106c-0.8,0-1.6,0-1.6,1.3v0.6h-0.8
	v0.6h0.8V57.5z"/>
<rect x="107.3" y="52.7" class="st2" width="0.7" height="4.8"/>
<rect x="107.3" y="50.9" class="st2" width="0.7" height="0.9"/>
<path class="st2" d="M111.6,57.6c0.9,0,1.4-0.4,1.7-0.8v0.6c0,1.2-0.9,1.5-1.7,1.5c-0.4,0-1.2-0.2-1.5-0.6l-0.1-0.1l-0.4,0.5l0,0
	c0.5,0.4,1.1,0.6,2,0.6c1.1,0,2.3-0.4,2.3-2.2v-4.6h-0.7v0.6c-0.3-0.4-0.9-0.7-1.7-0.7c-1.5,0-2.2,1.3-2.2,2.4
	C109.3,56.6,110.2,57.6,111.6,57.6 M110.1,55.1c0-1.1,0.6-1.9,1.5-1.9c1.3,0,1.7,1.2,1.7,1.8c0,0.9-0.4,2-1.6,2
	C110.5,57,110.1,56,110.1,55.1"/>
<path class="st2" d="M119.7,57.5v-4.8H119v2.8c0,0.9-0.8,1.5-1.3,1.5c-0.5,0-1.2-0.1-1.2-1.3v-3h-0.7V56c0,1,0.7,1.6,1.8,1.6
	c0.5,0,1-0.4,1.3-0.7v0.6H119.7z"/>
<path class="st2" d="M124.5,53.6l0.4-0.7l-0.1,0c-0.3-0.2-0.6-0.3-1.1-0.3c-0.4,0-0.9,0.1-1.3,0.7v-0.6h-0.7v4.8h0.7v-3
	c0-0.6,0.6-1.2,1.3-1.2C124,53.3,124.3,53.4,124.5,53.6L124.5,53.6z"/>
<rect x="125.7" y="52.7" class="st2" width="0.7" height="4.8"/>
<rect x="125.7" y="50.9" class="st2" width="0.7" height="0.9"/>
<path class="st2" d="M130.4,52.6c-0.2,0-0.9,0.1-1.4,0.7v-0.5h-0.7v4.8h0.7v-2.8c0-0.8,0.6-1.4,1.4-1.4c0.8,0,1.1,0.4,1.1,1.3v2.9
	h0.7v-3.3C132.2,53,131.2,52.6,130.4,52.6"/>
<path class="st2" d="M137.4,52.7v0.6c-0.3-0.4-0.9-0.7-1.7-0.7c-1.5,0-2.2,1.3-2.2,2.4c0,1.6,0.8,2.6,2.2,2.6c0.9,0,1.4-0.4,1.7-0.8
	v0.6c0,1.2-0.9,1.5-1.7,1.5c-0.4,0-1.2-0.2-1.5-0.6l-0.1-0.1l-0.4,0.5l0,0c0.5,0.4,1.1,0.6,2,0.6c1.1,0,2.3-0.4,2.3-2.2v-4.6H137.4z
	 M137.4,55c0,0.9-0.4,2-1.6,2c-1.2,0-1.6-1-1.6-1.9c0-1.1,0.6-1.9,1.5-1.9C137,53.2,137.4,54.4,137.4,55"/>
<path class="st2" d="M81.1,63.2c-0.3,0-0.9,0.1-1.4,0.7v-3.1H79v7.4h0.7v-2.7c0-1,0.5-1.5,1.4-1.5c0.7,0,1.1,0.5,1.1,1.5v2.8h0.7
	v-3.2C82.8,64.6,82.7,63.2,81.1,63.2"/>
<path class="st2" d="M87.4,66.1c0,0.9-0.8,1.5-1.3,1.5c-0.5,0-1.2-0.1-1.2-1.3v-3h-0.7v3.3c0,1,0.7,1.6,1.8,1.6c0.5,0,1-0.4,1.3-0.7
	v0.6h0.7v-4.8h-0.7V66.1z"/>
<path class="st2" d="M95.3,63.2c-0.7,0-1.3,0.3-1.6,0.8c-0.3-0.6-1-0.8-1.4-0.8c-0.5,0-1.1,0.1-1.5,0.7v-0.5H90v4.8h0.7v-2.8
	c0-0.7,0.4-1.5,1.4-1.5c0.8,0,1.1,0.4,1.1,1.3v2.9h0.7v-2.8c0-0.6,0.3-1.4,1.3-1.4c0.8,0,1.2,0.4,1.2,1.2v3H97v-3.3
	C97,63.7,96.1,63.2,95.3,63.2"/>
<path class="st2" d="M100.3,63.1c-0.6,0-1.2,0.1-1.7,0.4l-0.1,0l0.3,0.6l0.1,0c0.4-0.2,0.8-0.3,1.3-0.3c1,0,1.4,0.3,1.4,1v0.4
	c-0.3-0.1-1-0.1-1.2-0.1c-1.6,0-2.2,0.8-2.2,1.6c0,1,0.6,1.5,1.7,1.5c0.5,0,1.1-0.1,1.7-0.5v0.4h0.7v-3.5
	C102.2,63.6,101.6,63.1,100.3,63.1 M100,67.6c-0.7,0-1.2-0.3-1.2-0.9c0-0.9,0.7-1.1,1.4-1.1c0.5,0,1,0,1.3,0.1v1.3
	C101.1,67.4,100.5,67.6,100,67.6"/>
<path class="st2" d="M106.2,63.2c-0.2,0-0.9,0.1-1.4,0.7v-0.5h-0.7v4.8h0.7v-2.8c0-0.8,0.6-1.4,1.4-1.4c0.8,0,1.1,0.4,1.1,1.3v2.9
	h0.7v-3.3C108,63.6,107.1,63.2,106.2,63.2"/>
<polygon class="st2" points="113.3,64 110.2,60.7 109.3,60.7 112.6,64.2 108.9,68.1 109.9,68.1 113.3,64.6 113.3,68.1 114,68.1 
	114,60.7 113.3,60.7 "/>
<rect x="116.3" y="63.3" class="st2" width="0.7" height="4.8"/>
<rect x="116.3" y="61.4" class="st2" width="0.7" height="0.9"/>
<path class="st2" d="M121.1,63.2c-0.2,0-0.9,0.1-1.4,0.7v-0.5H119v4.8h0.7v-2.8c0-0.8,0.6-1.4,1.4-1.4c0.8,0,1.1,0.4,1.1,1.3v2.9
	h0.7v-3.3C122.9,63.6,121.9,63.2,121.1,63.2"/>
<path class="st2" d="M128.3,63.9c-0.3-0.4-0.9-0.7-1.7-0.7c-1.5,0-2.2,1.3-2.2,2.4c0,1.6,0.8,2.6,2.2,2.6c0.9,0,1.4-0.4,1.7-0.8v0.7
	h0.7v-7.4h-0.7V63.9z M128.2,65.6c0,0.9-0.4,2-1.6,2c-1.2,0-1.6-1-1.6-1.9c0-1.1,0.6-1.9,1.5-1.9C127.9,63.8,128.2,65,128.2,65.6"/>
</svg>
